<?xml version="1.0" encoding="UTF-8"?>
<svg id="Layer_1" data-name="Layer 1" xmlns="http://www.w3.org/2000/svg" xmlns:xlink="http://www.w3.org/1999/xlink" viewBox="0 0 50.49 51.49">
  <defs>
    <style>
      .cls-1 {
        fill: #fc0;
      }

      .cls-2 {
        fill: url(#linear-gradient-15);
      }

      .cls-3 {
        fill: url(#linear-gradient-13);
      }

      .cls-4 {
        fill: url(#linear-gradient-28);
      }

      .cls-5 {
        fill: url(#linear-gradient-2);
      }

      .cls-6 {
        fill: url(#linear-gradient-25);
      }

      .cls-7 {
        fill: url(#linear-gradient-10);
      }

      .cls-8 {
        fill: url(#linear-gradient-12);
      }

      .cls-9 {
        fill: url(#linear-gradient-40);
      }

      .cls-10 {
        fill: url(#linear-gradient-27);
      }

      .cls-11 {
        fill: url(#linear-gradient-37);
      }

      .cls-12 {
        fill: url(#linear-gradient-39);
      }

      .cls-13 {
        fill: url(#linear-gradient-26);
      }

      .cls-14 {
        fill: url(#linear-gradient-4);
      }

      .cls-15 {
        fill: url(#linear-gradient-35);
      }

      .cls-16 {
        fill: url(#linear-gradient-30);
      }

      .cls-17 {
        fill: url(#linear-gradient-3);
      }

      .cls-18 {
        fill: url(#linear-gradient-34);
      }

      .cls-19 {
        fill: url(#linear-gradient-5);
      }

      .cls-20 {
        fill: url(#linear-gradient-38);
      }

      .cls-21 {
        fill: url(#linear-gradient-22);
      }

      .cls-22 {
        fill: url(#linear-gradient-24);
      }

      .cls-23 {
        fill: url(#linear-gradient-33);
      }

      .cls-24 {
        fill: url(#linear-gradient-8);
      }

      .cls-25 {
        fill: url(#linear-gradient-14);
      }

      .cls-26 {
        fill: url(#linear-gradient-29);
      }

      .cls-27 {
        fill: url(#linear-gradient-20);
      }

      .cls-28 {
        fill: url(#linear-gradient-17);
      }

      .cls-29 {
        fill: url(#linear-gradient-7);
      }

      .cls-30 {
        fill: url(#linear-gradient-9);
      }

      .cls-31 {
        fill: url(#linear-gradient-11);
      }

      .cls-32 {
        fill: #fefae5;
      }

      .cls-33 {
        fill: url(#linear-gradient-19);
      }

      .cls-34 {
        fill: url(#linear-gradient-6);
      }

      .cls-35 {
        fill: url(#linear-gradient-36);
      }

      .cls-36 {
        fill: url(#linear-gradient-21);
      }

      .cls-37 {
        fill: url(#linear-gradient-32);
      }

      .cls-38 {
        fill: url(#linear-gradient-16);
      }

      .cls-39 {
        fill: url(#linear-gradient);
      }

      .cls-40 {
        fill: url(#linear-gradient-23);
      }

      .cls-41 {
        fill: url(#linear-gradient-31);
      }

      .cls-42 {
        fill: url(#linear-gradient-18);
      }
    </style>
    <linearGradient id="linear-gradient" x1="18.09" y1="4.46" x2="30.96" y2="4.46" gradientTransform="translate(0 52) scale(1 -1)" gradientUnits="userSpaceOnUse">
      <stop offset="0" stop-color="#fc0"/>
      <stop offset="1" stop-color="#e3b600"/>
    </linearGradient>
    <linearGradient id="linear-gradient-2" x1="46.05" y1="30.03" x2="41.93" y2="34.15" gradientTransform="translate(0 52) scale(1 -1)" gradientUnits="userSpaceOnUse">
      <stop offset="0" stop-color="#e3b600"/>
      <stop offset="1" stop-color="#bf872b"/>
    </linearGradient>
    <linearGradient id="linear-gradient-3" x1="46.63" y1="30.48" x2="50.46" y2="34.31" gradientTransform="translate(0 52) scale(1 -1)" gradientUnits="userSpaceOnUse">
      <stop offset="0" stop-color="#e3b600"/>
      <stop offset="1" stop-color="#fefae5"/>
    </linearGradient>
    <linearGradient id="linear-gradient-4" x1="41.75" y1="30.35" x2="50.49" y2="30.35" gradientTransform="translate(0 52) scale(1 -1)" gradientUnits="userSpaceOnUse">
      <stop offset="0" stop-color="#fefae5"/>
      <stop offset=".48" stop-color="#fc0"/>
      <stop offset="1" stop-color="#e3b600"/>
    </linearGradient>
    <linearGradient id="linear-gradient-5" x1="42.58" y1="23.66" x2="44.95" y2="23.66" gradientTransform="translate(0 52) scale(1 -1)" gradientUnits="userSpaceOnUse">
      <stop offset="0" stop-color="#e3b600"/>
      <stop offset="1" stop-color="#bf872b"/>
    </linearGradient>
    <linearGradient id="linear-gradient-6" x1="43.94" y1="22.07" x2="50.28" y2="22.07" gradientTransform="translate(0 52) scale(1 -1)" gradientUnits="userSpaceOnUse">
      <stop offset="0" stop-color="#e3b600"/>
      <stop offset="1" stop-color="#fefae5"/>
    </linearGradient>
    <linearGradient id="linear-gradient-7" x1="40.31" y1="22.2" x2="44.31" y2="22.2" gradientTransform="translate(0 52) scale(1 -1)" gradientUnits="userSpaceOnUse">
      <stop offset="0" stop-color="#fefae5"/>
      <stop offset="1" stop-color="#fc0"/>
    </linearGradient>
    <linearGradient id="linear-gradient-8" x1="38.29" y1="17.28" x2="40.61" y2="17.28" gradientTransform="translate(0 52) scale(1 -1)" gradientUnits="userSpaceOnUse">
      <stop offset="0" stop-color="#e3b600"/>
      <stop offset="1" stop-color="#bf872b"/>
    </linearGradient>
    <linearGradient id="linear-gradient-9" x1="38.29" y1="14.49" x2="46.01" y2="14.49" gradientTransform="translate(0 52) scale(1 -1)" gradientUnits="userSpaceOnUse">
      <stop offset="0" stop-color="#e3b600"/>
      <stop offset="1" stop-color="#fefae5"/>
    </linearGradient>
    <linearGradient id="linear-gradient-10" x1="36.08" y1="17.43" x2="38.46" y2="16.05" gradientTransform="translate(0 52) scale(1 -1)" gradientUnits="userSpaceOnUse">
      <stop offset="0" stop-color="#fefae5"/>
      <stop offset="1" stop-color="#fc0"/>
    </linearGradient>
    <linearGradient id="linear-gradient-11" x1="33.42" y1="15.12" x2="33.42" y2="9.37" gradientTransform="translate(0 52) scale(1 -1)" gradientUnits="userSpaceOnUse">
      <stop offset="0" stop-color="#e3b600"/>
      <stop offset="1" stop-color="#bf872b"/>
    </linearGradient>
    <linearGradient id="linear-gradient-12" x1="33.26" y1="9.94" x2="39.39" y2="8.66" gradientTransform="translate(0 52) scale(1 -1)" gradientUnits="userSpaceOnUse">
      <stop offset="0" stop-color="#e3b600"/>
      <stop offset="1" stop-color="#fc0"/>
    </linearGradient>
    <linearGradient id="linear-gradient-13" x1="30.72" y1="14.35" x2="33.97" y2="9.1" gradientTransform="translate(0 52) scale(1 -1)" gradientUnits="userSpaceOnUse">
      <stop offset="0" stop-color="#fefae5"/>
      <stop offset="1" stop-color="#fc0"/>
    </linearGradient>
    <linearGradient id="linear-gradient-14" x1="38.68" y1="40.54" x2="44.76" y2="38.34" gradientTransform="translate(0 52) scale(1 -1)" gradientUnits="userSpaceOnUse">
      <stop offset="0" stop-color="#fc0"/>
      <stop offset="1" stop-color="#fefae5"/>
    </linearGradient>
    <linearGradient id="linear-gradient-15" x1="39.32" y1="39.51" x2="47.73" y2="39.51" gradientTransform="translate(0 52) scale(1 -1)" gradientUnits="userSpaceOnUse">
      <stop offset="0" stop-color="#fefae5"/>
      <stop offset="1" stop-color="#fc0"/>
    </linearGradient>
    <linearGradient id="linear-gradient-16" x1="33.57" y1="45.3" x2="41.26" y2="45.3" gradientTransform="translate(0 52) scale(1 -1)" gradientUnits="userSpaceOnUse">
      <stop offset="0" stop-color="#fc0"/>
      <stop offset="1" stop-color="#fefae5"/>
    </linearGradient>
    <linearGradient id="linear-gradient-17" x1="40.24" y1="42.86" x2="39.99" y2="51.78" gradientTransform="translate(0 52) scale(1 -1)" gradientUnits="userSpaceOnUse">
      <stop offset="0" stop-color="#fc0"/>
      <stop offset=".02" stop-color="#ffce09"/>
      <stop offset=".12" stop-color="#ffd83c"/>
      <stop offset=".23" stop-color="#ffe169"/>
      <stop offset=".34" stop-color="#fee98f"/>
      <stop offset=".45" stop-color="#feefae"/>
      <stop offset=".57" stop-color="#fef4c7"/>
      <stop offset=".7" stop-color="#fef7d8"/>
      <stop offset=".83" stop-color="#fef9e2"/>
      <stop offset="1" stop-color="#fefae5"/>
    </linearGradient>
    <linearGradient id="linear-gradient-18" x1="35.33" y1="45.01" x2="43.66" y2="47.59" gradientTransform="translate(0 52) scale(1 -1)" gradientUnits="userSpaceOnUse">
      <stop offset="0" stop-color="#fefae5"/>
      <stop offset="1" stop-color="#fc0"/>
    </linearGradient>
    <linearGradient id="linear-gradient-19" x1="21" y1="7.38" x2="32.98" y2="1.36" gradientTransform="translate(0 52) scale(1 -1)" gradientUnits="userSpaceOnUse">
      <stop offset="0" stop-color="#fc0"/>
      <stop offset="1" stop-color="#e3b600"/>
    </linearGradient>
    <linearGradient id="linear-gradient-20" x1="-757.27" y1="30.04" x2="-761.39" y2="34.16" gradientTransform="translate(-752.84 52) rotate(-180)" gradientUnits="userSpaceOnUse">
      <stop offset="0" stop-color="#e3b600"/>
      <stop offset="1" stop-color="#fefae5"/>
    </linearGradient>
    <linearGradient id="linear-gradient-21" x1=".48" y1="34.64" x2="4.32" y2="29.81" gradientTransform="translate(0 52) scale(1 -1)" gradientUnits="userSpaceOnUse">
      <stop offset="0" stop-color="#fc0"/>
      <stop offset="1" stop-color="#e3b600"/>
    </linearGradient>
    <linearGradient id="linear-gradient-22" x1="-.7" y1="30.35" x2="5.63" y2="30.35" gradientTransform="translate(0 52) scale(1 -1)" gradientUnits="userSpaceOnUse">
      <stop offset="0" stop-color="#fefae5"/>
      <stop offset="1" stop-color="#fc0"/>
    </linearGradient>
    <linearGradient id="linear-gradient-23" x1="6.43" y1="21.44" x2="7.1" y2="27.19" gradientTransform="translate(0 52) scale(1 -1)" gradientUnits="userSpaceOnUse">
      <stop offset="0" stop-color="#fc0"/>
      <stop offset="1" stop-color="#fefae5"/>
    </linearGradient>
    <linearGradient id="linear-gradient-24" x1="5.61" y1="21.22" x2=".36" y2="24.05" gradientTransform="translate(0 52) scale(1 -1)" gradientUnits="userSpaceOnUse">
      <stop offset="0" stop-color="#fc0"/>
      <stop offset="1" stop-color="#e3b600"/>
    </linearGradient>
    <linearGradient id="linear-gradient-25" x1="3.54" y1="20.97" x2="10.46" y2="23.14" gradientTransform="translate(0 52) scale(1 -1)" gradientUnits="userSpaceOnUse">
      <stop offset="0" stop-color="#fc0"/>
      <stop offset="1" stop-color="#e3b600"/>
    </linearGradient>
    <linearGradient id="linear-gradient-26" x1="10.98" y1="15.1" x2="11.23" y2="21.44" gradientTransform="translate(0 52) scale(1 -1)" gradientUnits="userSpaceOnUse">
      <stop offset="0" stop-color="#fc0"/>
      <stop offset="1" stop-color="#e3b600"/>
    </linearGradient>
    <linearGradient id="linear-gradient-27" x1="3.4" y1="15.86" x2="11.9" y2="14.03" gradientTransform="translate(0 52) scale(1 -1)" gradientUnits="userSpaceOnUse">
      <stop offset="0" stop-color="#fefae5"/>
      <stop offset="1" stop-color="#fc0"/>
    </linearGradient>
    <linearGradient id="linear-gradient-28" x1="6.78" y1="13.33" x2="13.86" y2="17" gradientTransform="translate(0 52) scale(1 -1)" gradientUnits="userSpaceOnUse">
      <stop offset="0" stop-color="#fc0"/>
      <stop offset="1" stop-color="#e3b600"/>
    </linearGradient>
    <linearGradient id="linear-gradient-29" x1="-770.07" y1="9.94" x2="-763.94" y2="8.66" gradientTransform="translate(-752.84 52) rotate(-180)" gradientUnits="userSpaceOnUse">
      <stop offset="0" stop-color="#fc0"/>
      <stop offset="1" stop-color="#fefae5"/>
    </linearGradient>
    <linearGradient id="linear-gradient-30" x1="14.43" y1="7.4" x2="19.6" y2="13.4" gradientTransform="translate(0 52) scale(1 -1)" gradientUnits="userSpaceOnUse">
      <stop offset="0" stop-color="#e3b600"/>
      <stop offset=".9" stop-color="#fc0"/>
      <stop offset="1" stop-color="#fefae5"/>
    </linearGradient>
    <linearGradient id="linear-gradient-31" x1="5.86" y1="38.31" x2="11.94" y2="41.14" gradientTransform="translate(0 52) scale(1 -1)" gradientUnits="userSpaceOnUse">
      <stop offset="0" stop-color="#e3b600"/>
      <stop offset="1" stop-color="#fefae5"/>
    </linearGradient>
    <linearGradient id="linear-gradient-32" x1="3.73" y1="41.59" x2="6.56" y2="39.42" gradientTransform="translate(0 52) scale(1 -1)" gradientUnits="userSpaceOnUse">
      <stop offset="0" stop-color="#fc0"/>
      <stop offset="1" stop-color="#e3b600"/>
    </linearGradient>
    <linearGradient id="linear-gradient-33" x1="2.03" y1="40.75" x2="8.19" y2="37.34" gradientTransform="translate(0 52) scale(1 -1)" gradientUnits="userSpaceOnUse">
      <stop offset="0" stop-color="#fefae5"/>
      <stop offset="1" stop-color="#fc0"/>
    </linearGradient>
    <linearGradient id="linear-gradient-34" x1="10.07" y1="45.29" x2="17.15" y2="45.29" gradientTransform="translate(0 52) scale(1 -1)" gradientUnits="userSpaceOnUse">
      <stop offset="0" stop-color="#fc0"/>
      <stop offset="1" stop-color="#fefae5"/>
    </linearGradient>
    <linearGradient id="linear-gradient-35" x1="10.36" y1="50.96" x2="10.36" y2="44.79" gradientTransform="translate(0 52) scale(1 -1)" gradientUnits="userSpaceOnUse">
      <stop offset="0" stop-color="#fc0"/>
      <stop offset="1" stop-color="#e3b600"/>
    </linearGradient>
    <linearGradient id="linear-gradient-36" x1="7.7" y1="50.09" x2="13.62" y2="41.84" gradientTransform="translate(0 52) scale(1 -1)" gradientUnits="userSpaceOnUse">
      <stop offset="0" stop-color="#fefae5"/>
      <stop offset="1" stop-color="#fc0"/>
    </linearGradient>
    <linearGradient id="linear-gradient-37" x1="23.25" y1="20.81" x2="28.26" y2="20.81" gradientUnits="userSpaceOnUse">
      <stop offset="0" stop-color="#d6eff8"/>
      <stop offset="1" stop-color="#abd0e0"/>
    </linearGradient>
    <linearGradient id="linear-gradient-38" x1="22.09" y1="21.98" x2="23.95" y2="20.77" gradientUnits="userSpaceOnUse">
      <stop offset=".31" stop-color="#f6ffff"/>
      <stop offset=".89" stop-color="#c4ebfb"/>
    </linearGradient>
    <linearGradient id="linear-gradient-39" y1="21.65" y2="21.65" xlink:href="#linear-gradient-37"/>
    <linearGradient id="linear-gradient-40" x1="12.94" y1="30.33" x2="34.07" y2="15.42" gradientUnits="userSpaceOnUse">
      <stop offset=".02" stop-color="#99b1bd"/>
      <stop offset=".39" stop-color="#f6ffff"/>
      <stop offset=".89" stop-color="#c4ebfb"/>
    </linearGradient>
  </defs>
  <g id="Layer_2" data-name="Layer 2">
    <g id="Artwork">
      <g id="General_Grade_4_-_5_Star_General" data-name="General Grade 4 - 5 Star General">
        <path class="cls-39" d="M29.42,44.27l.26.64c-.2.06-.31,0-.5,0-4.57,1.93-8.36,4.63-9.25,6.49-1.21.22-2.36-.58-2.58-1.79,0-.05-.02-.1-.02-.15,3.31-2.69,7.2-4.56,11.37-5.46.17,0,0-.31.2-.35l.52.62Z"/>
        <path class="cls-5" d="M46.09,20.88h0v2.72c-2.07-2.6-3.58-4.5-4.1-6.78,1.76.68,3.29,3.18,4.1,4.06Z"/>
        <path class="cls-17" d="M46.12,20.91h0c.82-.9,2.35-3.38,4.07-4.06-.51,2.28-2,4.18-4.09,6.78v-2.72h.02Z"/>
        <path class="cls-14" d="M41.88,16.76s.09.04.14.06c.52,2.28,2,4.18,4.1,6.78,2.06-2.6,3.57-4.5,4.09-6.78l.15-.06c0,4.28,1.18,6.47-3.57,9.75-.15.11-.41-.18-.66-.18s-.54.29-.68.18c-4.75-3.28-3.57-5.51-3.57-9.75Z"/>
        <path class="cls-19" d="M44.94,29.75h0l-1,2.5c-.94-3.19-1.63-5.52-1.25-7.83,1.31,1.32,1.83,4.19,2.25,5.33Z"/>
        <path class="cls-34" d="M45,29.79h0c1.1-.52,3.45-2.25,5.3-2.23-1.33,1.91-3.46,3.1-6.34,4.75l1-2.5.04-.02Z"/>
        <path class="cls-29" d="M42.58,24.35l.11.11c-.38,2.31.31,4.64,1.25,7.83,2.89-1.64,5-2.83,6.34-4.75h.16c-1.61,4-1.34,6.44-7,7.7-.16,0-.3-.33-.54-.42s-.6.06-.69-.09c-3.16-4.82-1.21-6.41.37-10.38Z"/>
        <path class="cls-24" d="M40.22,36.67h0l-1.93,1.88c.43-3.29.73-5.7,2-7.66.71,1.74,0,4.57-.07,5.78Z"/>
        <path class="cls-30" d="M40.22,36.71h0c1.21,0,4.06-.68,5.75.09-2,1.21-4.42,1.44-7.72,1.79l1.93-1.88h.04Z"/>
        <path class="cls-7" d="M40.23,30.78l.06.15c-1.27,2-1.57,4.37-2,7.66,3.31-.34,5.71-.59,7.71-1.79l.14.05c-3.07,3-3.81,5.36-9.48,4.25-.17,0-.15-.42-.33-.6s-.58-.18-.6-.36c-.96-5.69,1.44-6.37,4.5-9.36Z"/>
        <path class="cls-31" d="M33.9,41.34h0l-2.28,1.43c1.1-3.13,1.9-5.42,3.55-7.08.34,1.86-.94,4.48-1.27,5.65Z"/>
        <path class="cls-8" d="M33.89,41.38h0c1.19.21,4.11.18,5.6,1.28-2.2.78-4.62.5-7.92.15l2.28-1.43h.04Z"/>
        <path class="cls-3" d="M35.14,35.58v.15c-1.65,1.66-2.45,4-3.55,7.08,3.31.36,5.72.63,7.92-.15l.13.09c-3.64,2.25-4.82,4.45-10.13,2.18-.16-.07-.06-.44-.2-.66s-.53-.3-.52-.47c.21-5.8,2.73-5.94,6.35-8.22Z"/>
        <path class="cls-25" d="M44.35,12.65h0l1.33,2.35c-3.06-1.29-5.3-2.23-6.85-4,1.83-.18,4.37,1.26,5.52,1.65Z"/>
        <path class="cls-32" d="M44.39,12.67h0c.29-1.18.43-4.1,1.62-5.51.64,2.24.22,4.63-.33,7.91l-1.29-2.36v-.04Z"/>
        <path class="cls-2" d="M38.67,11.07h.16c1.55,1.74,3.79,2.68,6.85,4,.56-3.28,1-5.67.33-7.91,0,0,.06-.09.1-.13,2.06,3.76,4.14,5.1,1.56,10.27-.08.16-.44,0-.67.16s-.33.5-.5.48c-5.75-.63-5.77-3.12-7.83-6.87Z"/>
        <path class="cls-38" d="M39.32,5.92h0l1.9,1.91c-3.3-.39-5.71-.67-7.69-1.92,1.74-.73,4.58-.04,5.79.01Z"/>
        <path class="cls-28" d="M39.36,5.93h0c-.06-1.21-.73-4,0-5.75,1.24,2,1.5,4.4,1.88,7.7l-1.9-1.91.02-.04Z"/>
        <path class="cls-42" d="M33.43,6l.14-.06c2,1.25,4.39,1.53,7.69,1.92-.38-3.3-.64-5.71-1.88-7.7l.06-.16c3,3,5.4,3.75,4.35,9.43,0,.17-.42.16-.6.34s-.18.58-.35.61c-5.69,1.02-6.39-1.38-9.41-4.38Z"/>
        <path class="cls-33" d="M21.07,44.27l-.27.64c.21.06.32,0,.51,0,4.57,1.93,8.35,4.63,9.25,6.49,1.2.22,2.35-.58,2.57-1.78,0-.05.02-.1.02-.16-3.3-2.69-7.2-4.56-11.36-5.46-.18,0,0-.31-.2-.35l-.52.62Z"/>
        <path class="cls-27" d="M4.39,20.88h0v2.72c2.04-2.6,3.61-4.5,4.08-6.78-1.73.68-3.26,3.18-4.08,4.06Z"/>
        <path class="cls-36" d="M4.37,20.91h0c-.84-.91-2.37-3.41-4.1-4.09.52,2.28,2,4.18,4.1,6.78v-2.69Z"/>
        <path class="cls-21" d="M8.61,16.76s-.09.04-.14.06c-.47,2.28-2.04,4.18-4.1,6.78-2.06-2.6-3.58-4.5-4.1-6.78-.05-.02-.1-.04-.14-.06,0,4.24-1.13,6.47,3.57,9.75.14.11.4-.18.66-.18s.54.29.68.18c4.75-3.28,3.57-5.51,3.57-9.75Z"/>
        <path class="cls-40" d="M5.55,29.75h0l1,2.5c.93-3.19,1.62-5.52,1.25-7.83-1.35,1.32-1.8,4.19-2.25,5.33Z"/>
        <path class="cls-22" d="M5.54,29.79h0c-1.09-.52-3.44-2.25-5.3-2.23,1.34,1.91,3.46,3.1,6.35,4.75l-1-2.5-.05-.02Z"/>
        <path class="cls-6" d="M7.91,24.35l-.11.11c.37,2.31-.32,4.64-1.25,7.83-2.89-1.64-5-2.83-6.35-4.75H.05c1.61,4,1.33,6.44,7,7.7.17,0,.31-.33.54-.42s.61.06.7-.09c3.14-4.82,1.23-6.41-.38-10.38Z"/>
        <path class="cls-13" d="M10.26,36.67h0l1.93,1.88c-.43-3.29-.73-5.7-2-7.66-.71,1.74,0,4.57.07,5.78Z"/>
        <path class="cls-10" d="M10.27,36.71h0c-1.21,0-4.06-.68-5.75.09,2,1.21,4.41,1.44,7.72,1.79l-1.93-1.88h-.04Z"/>
        <path class="cls-4" d="M10.25,30.78s0,.1-.05.15c1.27,2,1.57,4.37,2,7.66-3.31-.34-5.72-.59-7.72-1.79l-.14.05c3.06,3,3.81,5.36,9.48,4.25.17,0,.14-.42.32-.6s.58-.18.61-.36c.96-5.69-1.43-6.37-4.5-9.36Z"/>
        <path class="cls-1" d="M16.58,41.34h0l2.27,1.43c-1.1-3.13-1.89-5.42-3.54-7.08-.31,1.86.95,4.48,1.27,5.65Z"/>
        <path class="cls-26" d="M16.6,41.38h0c-1.2.21-4.12.18-5.61,1.28,2.21.78,4.62.5,7.92.15l-2.31-1.43Z"/>
        <path class="cls-16" d="M15.35,35.58v.15c1.65,1.66,2.44,4,3.54,7.08-3.3.36-5.71.63-7.92-.15l-.12.09c3.6,2.25,4.82,4.45,10.15,2.18.16-.07.06-.44.2-.66s.52-.3.51-.47c-.26-5.8-2.71-5.94-6.36-8.22Z"/>
        <path class="cls-41" d="M6.14,12.65h0l-1.33,2.35c3.06-1.29,5.3-2.23,6.85-4-1.84-.18-4.38,1.26-5.52,1.65Z"/>
        <path class="cls-37" d="M6.1,12.67h0c-.28-1.18-.43-4.1-1.62-5.51-.63,2.24-.21,4.63.34,7.91l1.28-2.4Z"/>
        <path class="cls-23" d="M11.81,11.07h-.15c-1.55,1.74-3.79,2.68-6.85,4-.56-3.28-1-5.67-.34-7.91l-.09-.16c-2.06,3.75-4.15,5.09-1.56,10.26.07.16.44,0,.67.16s.33.5.5.48c5.75-.59,5.76-3.08,7.82-6.83Z"/>
        <path class="cls-18" d="M11.17,5.92h-.05l-1.89,1.92c3.3-.39,5.71-.67,7.68-1.92-1.69-.74-4.53-.05-5.74,0Z"/>
        <path class="cls-15" d="M11.13,5.93h0c.06-1.21.72-4,0-5.75-1.23,2-1.49,4.4-1.87,7.7l1.89-1.91-.02-.04Z"/>
        <path class="cls-35" d="M17.06,6l-.15-.06c-2,1.25-4.38,1.53-7.68,1.92.37-3.3.63-5.71,1.87-7.7V.02c-3.1,2.98-5.45,3.73-4.4,9.41,0,.17.42.16.6.34s.18.58.35.61c5.68,1.02,6.35-1.38,9.41-4.38Z"/>
      </g>
    </g>
  </g>
  <g>
    <polygon class="cls-11" points="23.27 19.72 22.03 21.89 24.52 21.89 23.27 19.72"/>
    <path class="cls-20" d="M23.27,20.73l.39.67h-.77l.38-.67M23.27,19.72l-1.24,2.17h2.49l-1.26-2.17h0Z"/>
  </g>
  <path class="cls-12" d="M25.24,8.85c-7.07,0-12.8,5.73-12.8,12.8s5.73,12.8,12.8,12.8,12.8-5.73,12.8-12.8-5.73-12.8-12.8-12.8ZM22.38,27.27h-5.19c-.16,0-.26-.18-.18-.32l6.17-10.71,4.23,7.34h-6.34l-.95,1.62h3.43l-1.18,2.06ZM24.3,27.27l1.18-2.06h4.77l-6.14-10.67.89-1.53c.08-.14.28-.14.37,0l8.01,13.95c.08.14-.02.32-.18.32h-8.9Z"/>
  <path class="cls-9" d="M25.24,9.35c6.78,0,12.3,5.52,12.3,12.3s-5.52,12.3-12.3,12.3-12.3-5.52-12.3-12.3,5.52-12.3,12.3-12.3M29.4,24.71h-4.2l-.14.25-1.18,2.06-.43.75h9.76c.25,0,.49-.14.62-.35.13-.22.13-.49,0-.71l-8.01-13.95c-.13-.22-.36-.36-.62-.36s-.49.14-.62.36l-.89,1.53-.14.25.14.25,5.71,9.92M17.19,27.77h5.48l.14-.25,1.18-2.06.43-.75h-3.42l.36-.62h6.91l-.43-.75-4.23-7.34-.43-.75-.43.75-6.17,10.71c-.13.22-.13.49,0,.71.13.22.36.36.62.36M25.24,8.85c-7.07,0-12.8,5.73-12.8,12.8s5.73,12.8,12.8,12.8,12.8-5.73,12.8-12.8-5.73-12.8-12.8-12.8h0ZM24.3,27.27l1.18-2.06h4.77l-6.14-10.67.89-1.53c.04-.07.11-.11.18-.11.07,0,.14.04.18.11l8.01,13.95c.08.14-.02.32-.18.32h-8.9ZM17.19,27.27c-.16,0-.26-.18-.18-.32l6.17-10.71,4.23,7.34h-6.34l-.95,1.62h3.43l-1.18,2.06h-5.19Z"/>
</svg>