<svg width="22" height="22" viewBox="0 0 22 22" fill="none" xmlns="http://www.w3.org/2000/svg">
<path d="M21 21V12.5L12.5 21H21Z" fill="black"/>
<path d="M1 12.5V21H9.5L1 12.5Z" fill="black"/>
<path d="M6.5 12L11 16.5L15.5 12H14H12V2.5L11 1.9L10 2.5V12H9H8H6.5Z" fill="black"/>
<path d="M21 12.5V1H9.5L11 1.9M21 12.5V21H12.5M21 12.5L12.5 21M12.5 21H9.5M1 12.5V21H9.5M1 12.5V1H12.5L11 1.9M1 12.5L9.5 21M11 1.9L12 2.5V12H14H15.5L11 16.5L6.5 12H8H9H10V2.5L11 1.9Z" stroke="black" stroke-width="2"/>
</svg>